:SAMPLES-PER-SECOND 30
:FULLY-SPECIFIED
:DEGREES
176
root  -10.753 34.7489 -11.115 -177.929 4.57278 179.013
RightUpLeg  -3.04157 -13.1628 -5.04076
RightLeg  8.85632 -5.68604 -0.51198
RightFoot  3.05864 0.0209434 -0.123999
RightToes  -28.0006 -0.138896 -0.239334
Spine  -1.39815 0.303742 -0.603341
Spine1  -2.83404 0.677387 -0.534841
HEad  -55.8532 0.836972 6.36329
LeftShoulder1  -1.94126e-019 -3.10601e-018 -2.51263e-017
LeftArm  -15.0492 26.2712 -77.1867
LeftForeArm  29.7392 -11.9415 -2.08425
LeftHand  -0.265002 0.859581 6.75362
RightShoulder  -4.96962e-017 0 -2.36833e-017
RightArm  -68.7055 -1.66798 45.3602
RightForeArm  24.3311 40.6678 8.03117
RightHand  0.902648 -11.4258 -17.6953
LeftUpLeg  -3.91305 0.458069 2.45635
LeftLeg  7.94626 14.4426 1.06666
LeftFoot  5.13632 -0.060253 1.47379
LeftToes  -25.5418 2.14545e-006 -7.7278e-009
177
root  -10.7556 34.7605 -11.0988 -177.973 4.69868 179.057
RightUpLeg  -2.92001 -13.3628 -5.03535
RightLeg  8.60493 -5.33286 -0.45669
RightFoot  3.30002 0.02138 -0.128228
RightToes  -28.1644 -0.137949 -0.239328
Spine  -1.43505 0.3571 -0.697679
Spine1  -2.90489 0.779461 -0.708787
HEad  -55.64 0.852621 6.48326
LeftShoulder1  -1.94126e-019 -3.10601e-018 -2.51263e-017
LeftArm  -15.2979 27.1654 -76.5598
LeftForeArm  29.7788 -12.2907 -2.13949
LeftHand  -0.258727 1.0841 6.9099
RightShoulder  -4.96962e-017 0 -2.36833e-017
RightArm  -70.4962 1.62152 42.8394
RightForeArm  27.9365 51.1856 11.7576
RightHand  1.75209 -13.3109 -25.3406
LeftUpLeg  -3.88411 0.587323 2.50537
LeftLeg  7.97485 14.4222 1.07003
LeftFoot  5.12837 -0.0604457 1.4728
LeftToes  -25.4702 2.14545e-006 -7.7278e-009
178
root  -10.7256 34.7697 -11.0728 -177.925 5.27379 179.133
RightUpLeg  -3.02639 -13.267 -4.89042
RightLeg  8.39486 -4.88953 -0.400735
RightFoot  3.63905 0.0218572 -0.132951
RightToes  -28.4894 -0.136879 -0.239295
Spine  -1.54753 0.428692 -0.783893
Spine1  -3.13016 0.9234 -0.873888
HEad  -55.1326 1.17706 6.54963
LeftShoulder1  -1.94126e-019 -3.10601e-018 -2.51263e-017
LeftArm  -16.0483 28.404 -75.9195
LeftForeArm  29.1714 -12.9739 -2.25021
LeftHand  -0.272027 0.953974 7.07295
RightShoulder  -4.96962e-017 0 -2.36833e-017
RightArm  -68.5157 4.77785 41.602
RightForeArm  35.4288 61.9723 17.8651
RightHand  2.26463 -13.63 -30.9798
LeftUpLeg  -3.85921 1.13546 2.65884
LeftLeg  7.95222 14.4353 1.06532
LeftFoot  5.19158 -0.0618863 1.49286
LeftToes  -25.9078 2.14545e-006 -7.7278e-009
179
root  -10.6714 34.7715 -11.0535 -177.785 6.35323 179.207
RightUpLeg  -3.34206 -12.9188 -4.66595
RightLeg  8.23098 -4.21997 -0.333731
RightFoot  3.96406 0.0207776 -0.11548
RightToes  -28.197 -0.135683 -0.239241
Spine  -1.70941 0.507251 -0.795266
Spine1  -3.44836 1.07551 -0.874259
HEad  -54.7618 1.86636 6.38153
LeftShoulder1  -1.94126e-019 -3.10601e-018 -2.51263e-017
LeftArm  -18.0619 29.5196 -75.7719
LeftForeArm  27.9054 -12.9641 -2.24834
LeftHand  -0.27998 1.13097 7.56676
RightShoulder  -4.96962e-017 0 -2.36833e-017
RightArm  -63.8972 7.956 41.3035
RightForeArm  51.0755 72.5415 30.8956
RightHand  1.98331 -12.6738 -30.7464
LeftUpLeg  -3.81466 1.82337 2.82796
LeftLeg  7.90958 14.7387 1.07634
LeftFoot  5.25566 -0.0652545 1.54288
LeftToes  -25.911 2.14545e-006 -7.7278e-009
180
root  -10.5988 34.7687 -11.0417 -177.543 7.6385 179.355
RightUpLeg  -3.71503 -12.3623 -4.30776
RightLeg  7.96406 -3.58939 -0.266997
RightFoot  4.35695 0.0197054 -0.0983034
RightToes  -28.1768 -0.134357 -0.239097
Spine  -1.88065 0.635207 -0.757788
Spine1  -3.76795 1.29109 -0.742043
HEad  -54.8162 2.43387 6.04623
LeftShoulder1  -1.94126e-019 -3.10601e-018 -2.51263e-017
LeftArm  -20.9051 29.9428 -76.0253
LeftForeArm  27.6722 -12.2076 -2.1329
LeftHand  -0.328414 1.11147 8.86216
RightShoulder  -4.96962e-017 0 -2.36833e-017
RightArm  -56.9306 10.6987 41.3349
RightForeArm  90.9343 80.2338 67.365
RightHand  1.54478 -11.5084 -28.7139
LeftUpLeg  -3.84192 2.44809 3.06732
LeftLeg  7.92588 15.31 1.12144
LeftFoot  5.40794 -0.0720874 1.64509
LeftToes  -25.6384 2.14545e-006 -7.7278e-009
181
root  -10.5185 34.7678 -11.0425 -177.324 8.63528 179.572
RightUpLeg  -3.92735 -12.0216 -3.91131
RightLeg  7.64314 -3.00799 -0.206716
RightFoot  4.61886 0.0180239 -0.0727455
RightToes  -28.0064 -0.132898 -0.237183
Spine  -2.01217 0.800869 -0.752468
Spine1  -4.0081 1.57308 -0.688691
HEad  -55.2372 2.56314 5.99468
LeftShoulder1  -1.94126e-019 -3.10601e-018 -2.51263e-017
LeftArm  -23.3867 29.752 -76.234
LeftForeArm  28.0651 -11.4965 -2.02484
LeftHand  -0.334345 1.28522 9.38882
RightShoulder  -4.96962e-017 0 -2.36833e-017
RightArm  -48.2544 12.3728 41.354
RightForeArm  153.647 79.136 125.962
RightHand  1.11189 -9.9611 -27.8004
LeftUpLeg  -3.89606 2.61396 3.35799
LeftLeg  8.02066 16.0829 1.20301
LeftFoot  5.58973 -0.0810438 1.77698
LeftToes  -25.0356 2.14545e-006 -7.7278e-009
182
root  -10.4471 34.7651 -11.0518 -177.201 8.99724 179.778
RightUpLeg  -3.95668 -11.9689 -3.58823
RightLeg  7.44892 -2.71813 -0.177467
RightFoot  4.71928 0.0172078 -0.0600196
RightToes  -28.0326 -0.131303 -0.234443
Spine  -2.04678 0.889601 -0.795594
Spine1  -4.05347 1.69163 -0.737068
HEad  -55.994 2.25727 6.3304
LeftShoulder1  -1.94126e-019 -3.10601e-018 -2.51263e-017
LeftArm  -24.4687 29.1434 -76.3376
LeftForeArm  27.9912 -11.4928 -2.03144
LeftHand  -0.340196 1.38438 9.78247
RightShoulder  -4.96962e-017 0 -2.36833e-017
RightArm  -39.4228 13.4579 41.0833
RightForeArm  -171.065 72.9821 151.277
RightHand  0.479491 -7.39135 -27.5611
LeftUpLeg  -4.05666 2.54844 3.64308
LeftLeg  8.33331 16.482 1.32124
LeftFoot  5.70603 -0.0866533 1.85185
LeftToes  -24.7604 2.14545e-006 -7.7278e-009
183
root  -10.3908 34.7596 -11.0757 -177.218 8.69772 179.924
RightUpLeg  -3.83626 -12.286 -3.40595
RightLeg  7.5096 -2.68176 -0.177933
RightFoot  4.63448 0.0171415 -0.0586105
RightToes  -27.8704 -0.129569 -0.231297
Spine  -1.98994 0.917735 -0.894249
Spine1  -3.91819 1.69204 -0.904448
HEad  -56.9415 1.52748 6.91416
LeftShoulder1  -1.94126e-019 -3.10601e-018 -2.51263e-017
LeftArm  -24.2183 28.3066 -76.3734
LeftForeArm  28.0244 -12.5174 -2.21986
LeftHand  -0.34674 1.34515 9.88116
RightShoulder  -4.96962e-017 0 -2.36833e-017
RightArm  -32.4951 14.0211 40.6735
RightForeArm  -146.372 67.6476 160.691
RightHand  -0.36565 -4.01973 -30.4229
LeftUpLeg  -4.18291 2.34305 3.87367
LeftLeg  8.63297 16.3883 1.39898
LeftFoot  5.8713 -0.0901306 1.88689
LeftToes  -24.7527 2.14545e-006 -7.7278e-009
184
root  -10.3586 34.7512 -11.0948 -177.315 7.86949 179.989
RightUpLeg  -3.71728 -12.6855 -3.33913
RightLeg  7.84217 -3.07934 -0.222384
RightFoot  4.50003 0.0189413 -0.0846082
RightToes  -27.5914 -0.127692 -0.22817
Spine  -1.86974 0.971642 -1.03516
Spine1  -3.66757 1.77384 -1.17531
HEad  -57.8044 0.376862 7.69036
LeftShoulder1  -1.94126e-019 -3.10601e-018 -2.51263e-017
LeftArm  -23.2995 27.2895 -76.4386
LeftForeArm  28.2377 -14.457 -2.57058
LeftHand  -0.352528 1.1256 9.51485
RightShoulder  -4.96962e-017 0 -2.36833e-017
RightArm  -29.8809 13.8677 40.2218
RightForeArm  -132.825 64.65 164.1
RightHand  -0.965766 -2.55081 -38.4225
LeftUpLeg  -4.30682 1.97736 4.00006
LeftLeg  8.81303 15.9724 1.41428
LeftFoot  6.04196 -0.0919267 1.88747
LeftToes  -24.7604 2.14545e-006 -7.7278e-009
185
root  -10.3438 34.7444 -11.1186 -177.437 6.65646 179.963
RightUpLeg  -3.61001 -13.0767 -3.36928
RightLeg  8.34919 -3.91573 -0.317781
RightFoot  4.2857 0.0220445 -0.130109
RightToes  -26.9843 -0.123715 -0.225482
Spine  -1.74228 1.05115 -1.24452
Spine1  -3.41935 1.94492 -1.60529
HEad  -58.1152 -1.02682 8.48502
LeftShoulder1  -1.94126e-019 -3.10601e-018 -2.51263e-017
LeftArm  -21.5263 26.3025 -76.3887
LeftForeArm  27.5872 -17.1308 -3.03226
LeftHand  -0.354541 0.952009 9.24875
RightShoulder  -4.96962e-017 0 -2.36833e-017
RightArm  -32.6528 12.9571 40.3404
RightForeArm  -132.999 63.455 164.945
RightHand  -0.805466 -3.32853 -43.8887
LeftUpLeg  -4.40016 1.36953 4.00381
LeftLeg  8.81191 15.4231 1.36652
LeftFoot  6.25413 -0.0941193 1.88423
LeftToes  -24.8582 2.14545e-006 -7.7278e-009
186
root  -10.3476 34.7402 -11.1349 -177.523 5.24324 179.858
RightUpLeg  -3.57158 -13.2958 -3.46926
RightLeg  8.95743 -5.09488 -0.467908
RightFoot  3.97268 0.0254631 -0.181133
RightToes  -26.0582 -0.117741 -0.223658
Spine  -1.70419 1.08986 -1.48714
Spine1  -3.35745 2.04619 -2.10924
HEad  -57.3974 -2.44875 9.3434
LeftShoulder1  -1.94126e-019 -3.10601e-018 -2.51263e-017
LeftArm  -20.6077 25.6861 -76.3993
LeftForeArm  26.2441 -19.9225 -3.46311
LeftHand  -0.364376 0.776174 9.16242
RightShoulder  -4.96962e-017 0 -2.36833e-017
RightArm  -40.1544 12.1387 41.7994
RightForeArm  -139.98 63.9142 164.229
RightHand  -0.435265 -4.21064 -42.0618
LeftUpLeg  -4.45164 0.494136 3.89679
LeftLeg  8.53946 14.948 1.25463
LeftFoot  6.57966 -0.100902 1.9168
LeftToes  -25.0087 2.14545e-006 -7.7278e-009
187
root  -10.3592 34.7406 -11.1574 -177.489 3.78899 179.674
RightUpLeg  -3.56887 -13.7058 -3.65922
RightLeg  9.43781 -6.11704 -0.613231
RightFoot  3.63105 0.0270976 -0.207912
RightToes  -25.2899 -0.112868 -0.22263
Spine  -1.83415 0.926981 -1.76481
Spine1  -3.61774 1.71996 -2.66315
HEad  -56.0188 -3.34842 10.5269
LeftShoulder1  -1.94126e-019 -3.10601e-018 -2.51263e-017
LeftArm  -20.8102 25.7544 -76.511
LeftForeArm  24.1493 -22.6388 -3.88007
LeftHand  -0.373953 0.890975 9.63391
RightShoulder  -4.96962e-017 0 -2.36833e-017
RightArm  -49.7688 13.0141 45.0339
RightForeArm  -150.271 66.6597 161.3
RightHand  -0.0533044 -5.20964 -38.0675
LeftUpLeg  -4.44796 -0.351487 3.70263
LeftLeg  7.92257 14.3918 1.05477
LeftFoot  7.00625 -0.109974 1.95787
LeftToes  -25.106 2.14545e-006 -7.7278e-009
188
root  -10.3662 34.7494 -11.1982 -177.351 2.63124 179.523
RightUpLeg  -3.51079 -14.2303 -3.81928
RightLeg  9.5717 -6.7307 -0.690358
RightFoot  3.53885 0.0284301 -0.231691
RightToes  -25.2039 -0.111678 -0.222009
Spine  -2.05483 0.629957 -1.96771
Spine1  -4.04949 1.11437 -3.05539
HEad  -54.4925 -3.65214 11.6761
LeftShoulder1  -1.94126e-019 -3.10601e-018 -2.51263e-017
LeftArm  -21.1308 26.1603 -76.6625
LeftForeArm  22.4336 -24.641 -4.22866
LeftHand  -0.375985 1.23171 10.4463
RightShoulder  -4.96962e-017 0 -2.36833e-017
RightArm  -58.5467 15.7484 48.9082
RightForeArm  -168.111 69.911 156.139
RightHand  0.797645 -7.93173 -35.0538
LeftUpLeg  -4.21261 -0.810452 3.55334
LeftLeg  6.80447 13.7752 0.743305
LeftFoot  7.59441 -0.123374 2.02025
LeftToes  -25.459 2.14545e-006 -7.7278e-009
